<svg width="13" height="16" viewBox="0 0 13 16" fill="none" xmlns="http://www.w3.org/2000/svg">
<path d="M8.27259 4V0H1.72714C1.12441 0 0.63623 0.488182 0.63623 1.09091V14.9091C0.63623 15.5118 1.12441 16 1.72714 16H11.1817C11.7844 16 12.2726 15.5118 12.2726 14.9091V4H8.27259ZM7.90896 11.4545H3.18168V10.5455H7.90896V11.4545ZM9.72714 9.27273H3.18168V8.36364H9.72714V9.27273ZM9.72714 7.09091H3.18168V6.18182H9.72714V7.09091Z" fill="#4285F4"/>
<path d="M9.90909 8.18176H3V9.45449H9.90909V8.18176Z" fill="white"/>
<path d="M8.09091 10.3636H3V11.6364H8.09091V10.3636Z" fill="white"/>
<path d="M8.27252 4L10.4662 4.41455L12.2725 4L8.27252 0L7.7207 1.89636L8.27252 4Z" fill="#1967D2"/>
<path d="M9.90909 6H3V7.27273H9.90909V6Z" fill="white"/>
</svg>
