<svg width="32" height="32" viewBox="0 0 32 32" fill="none" xmlns="http://www.w3.org/2000/svg">
<mask id="mask0_989_604" style="mask-type:luminance" maskUnits="userSpaceOnUse" x="1" y="6" width="11" height="20">
<path d="M1.00781 6.93335H11.4774V25.0667H1.00781V6.93335Z" fill="white"/>
</mask>
<g mask="url(#mask0_989_604)">
<mask id="mask1_989_604" style="mask-type:luminance" maskUnits="userSpaceOnUse" x="1" y="0" width="30" height="32">
<path d="M30.6172 13.212H16.3351V19.1334H24.5561C23.7896 22.8952 20.5849 25.0548 16.3351 25.0548C11.3189 25.0548 7.27806 21.0143 7.27806 15.9985C7.27806 10.9827 11.3189 6.94221 16.3351 6.94221C18.4948 6.94221 20.4456 7.70855 21.9782 8.96246L26.4371 4.50405C23.72 2.13546 20.2366 0.672546 16.3351 0.672546C7.8354 0.672546 1.00781 7.49955 1.00781 15.9985C1.00781 24.4975 7.8354 31.3245 16.3351 31.3245C23.9986 31.3245 30.9656 25.7514 30.9656 15.9985C30.9656 15.0929 30.8262 14.1175 30.6172 13.212Z" fill="white"/>
</mask>
<g mask="url(#mask1_989_604)">
<path d="M-0.385742 25.0548V6.9422L11.458 15.9984L-0.385742 25.0548Z" fill="#FBBC05"/>
</g>
</g>
<mask id="mask2_989_604" style="mask-type:luminance" maskUnits="userSpaceOnUse" x="1" y="0" width="30" height="16">
<path d="M1.00781 0.661316H30.9656V16H1.00781V0.661316Z" fill="white"/>
</mask>
<g mask="url(#mask2_989_604)">
<mask id="mask3_989_604" style="mask-type:luminance" maskUnits="userSpaceOnUse" x="1" y="0" width="30" height="32">
<path d="M30.6172 13.2119H16.3351V19.1333H24.5561C23.7896 22.8952 20.5849 25.0547 16.3351 25.0547C11.3189 25.0547 7.27806 21.0142 7.27806 15.9984C7.27806 10.9827 11.3189 6.94215 16.3351 6.94215C18.4948 6.94215 20.4456 7.70849 21.9782 8.9624L26.4371 4.50399C23.72 2.1354 20.2366 0.672485 16.3351 0.672485C7.8354 0.672485 1.00781 7.49949 1.00781 15.9984C1.00781 24.4974 7.8354 31.3244 16.3351 31.3244C23.9986 31.3244 30.9656 25.7513 30.9656 15.9984C30.9656 15.0928 30.8262 14.1175 30.6172 13.2119Z" fill="white"/>
</mask>
<g mask="url(#mask3_989_604)">
<path d="M-0.385742 6.94211L11.458 15.9984L16.3348 11.7489L33.0554 9.03203V-0.720886H-0.385742V6.94211Z" fill="#EA4335"/>
</g>
</g>
<mask id="mask4_989_604" style="mask-type:luminance" maskUnits="userSpaceOnUse" x="1" y="0" width="30" height="32">
<path d="M1.00781 0.661316H30.9656V31.3244H1.00781V0.661316Z" fill="white"/>
</mask>
<g mask="url(#mask4_989_604)">
<mask id="mask5_989_604" style="mask-type:luminance" maskUnits="userSpaceOnUse" x="1" y="0" width="30" height="32">
<path d="M30.6172 13.2119H16.3351V19.1333H24.5561C23.7896 22.8952 20.5849 25.0547 16.3351 25.0547C11.3189 25.0547 7.27806 21.0142 7.27806 15.9984C7.27806 10.9827 11.3189 6.94215 16.3351 6.94215C18.4948 6.94215 20.4456 7.70849 21.9782 8.9624L26.4371 4.50399C23.72 2.1354 20.2366 0.672485 16.3351 0.672485C7.8354 0.672485 1.00781 7.49949 1.00781 15.9984C1.00781 24.4974 7.8354 31.3244 16.3351 31.3244C23.9986 31.3244 30.9656 25.7513 30.9656 15.9984C30.9656 15.0928 30.8262 14.1175 30.6172 13.2119Z" fill="white"/>
</mask>
<g mask="url(#mask5_989_604)">
<path d="M-0.385742 25.0547L20.515 9.03203L26.0188 9.7287L33.0554 -0.720886V32.7177H-0.385742V25.0547Z" fill="#34A853"/>
</g>
</g>
<mask id="mask6_989_604" style="mask-type:luminance" maskUnits="userSpaceOnUse" x="8" y="6" width="23" height="26">
<path d="M8.66113 6.93335H30.9653V31.3244H8.66113V6.93335Z" fill="white"/>
</mask>
<g mask="url(#mask6_989_604)">
<mask id="mask7_989_604" style="mask-type:luminance" maskUnits="userSpaceOnUse" x="1" y="0" width="30" height="32">
<path d="M30.6172 13.212H16.3351V19.1334H24.5561C23.7896 22.8952 20.5849 25.0548 16.3351 25.0548C11.3189 25.0548 7.27806 21.0143 7.27806 15.9985C7.27806 10.9827 11.3189 6.94221 16.3351 6.94221C18.4948 6.94221 20.4456 7.70855 21.9782 8.96246L26.4371 4.50405C23.72 2.13546 20.2366 0.672546 16.3351 0.672546C7.8354 0.672546 1.00781 7.49955 1.00781 15.9985C1.00781 24.4975 7.8354 31.3245 16.3351 31.3245C23.9986 31.3245 30.9656 25.7514 30.9656 15.9985C30.9656 15.0929 30.8262 14.1175 30.6172 13.212Z" fill="white"/>
</mask>
<g mask="url(#mask7_989_604)">
<path d="M33.0556 32.7178L11.4581 15.9984L8.67139 13.9086L33.0556 6.9422V32.7178Z" fill="#4285F4"/>
</g>
</g>
</svg>
