<svg width="12" height="16" viewBox="0 0 12 16" fill="none" xmlns="http://www.w3.org/2000/svg">
<path d="M7.63636 4V0H1.09091C0.488182 0 0 0.488182 0 1.09091V14.9091C0 15.5118 0.488182 16 1.09091 16H10.5455C11.1482 16 11.6364 15.5118 11.6364 14.9091V4H7.63636Z" fill="#34A853"/>
<path d="M7.6361 0L11.6361 4L9.6361 4.36364L7.6361 4L7.27246 2L7.6361 0Z" fill="#188038"/>
<path d="M2.18164 6.18176V11.4545H9.45437V6.18176H2.18164ZM5.36346 10.5454H3.09073V9.27267H5.36346V10.5454ZM5.36346 8.36358H3.09073V7.09085H5.36346V8.36358ZM8.54528 10.5454H6.27255V9.27267H8.54528V10.5454ZM8.54528 8.36358H6.27255V7.09085H8.54528V8.36358Z" fill="white"/>
</svg>
