<svg width="29" height="28" viewBox="0 0 29 28" fill="none" xmlns="http://www.w3.org/2000/svg">
<path d="M14.1426 27.9831C21.9534 27.9831 28.2853 21.7189 28.2853 13.9916C28.2853 6.26423 21.9534 0 14.1426 0C6.33188 0 0 6.26423 0 13.9916C0 21.7189 6.33188 27.9831 14.1426 27.9831Z" fill="url(#paint0_linear_989_663)"/>
<path d="M18.7252 14.0571C18.7254 14.0193 18.7305 13.9803 18.7317 13.9417C18.7706 12.5697 19.2954 11.1318 19.4597 9.75841L19.5048 9.74944C20.8666 9.43412 21.4343 10.5328 20.6383 11.439C19.7647 12.4318 19.3166 13.0705 18.7252 14.0571ZM7.60061 11.439C6.80461 10.5328 7.37205 9.43384 8.73493 9.74944L8.77923 9.75841C8.94289 11.1279 9.46491 12.561 9.50667 13.9296C9.50808 13.9717 9.51344 14.0154 9.51344 14.0571C8.92229 13.0705 8.47392 12.4318 7.60061 11.439ZM22.5971 9.41562C23.2072 6.92893 20.9639 5.27777 21.1214 2.92506C20.9391 3.54533 19.5926 6.41265 20.0102 6.81766C20.6047 7.39477 21.8677 8.11678 21.5305 8.82058C21.3031 9.29734 19.8403 8.79535 19.614 8.75975C19.6213 8.69697 19.6213 8.63671 19.6236 8.57589L19.6225 8.54533H19.6253L19.6247 8.53469H8.61444L8.61388 8.54533H8.6167C8.61755 8.58682 8.6167 8.62802 8.61952 8.67062C8.62234 8.70061 8.62122 8.7292 8.6246 8.75975C8.3983 8.79535 6.93553 9.29734 6.70782 8.82058C6.37091 8.11678 7.6339 7.39477 8.22815 6.81766C8.64605 6.41265 7.29953 3.54533 7.11725 2.92506C7.27442 5.27777 5.03173 6.92893 5.6415 9.41562C6.13078 11.4087 7.89886 12.4996 9.01061 14.0958C9.22788 14.4081 9.74397 14.7671 9.34498 15.1009C9.02952 15.3644 8.43922 15.3764 8.89803 16.1237C9.1802 16.5839 9.70221 15.8126 10.0642 15.9337C10.1111 15.9496 10.1551 15.9779 10.196 16.0278C11.3772 17.4867 11.9356 19.1454 13.6097 20.1993H13.6077C13.1943 20.2506 12.3935 20.5292 12.8916 21.0242C12.9497 21.0822 12.9929 21.1358 13.0284 21.1901C13.2457 21.5119 13.0837 21.7599 12.9139 22.0764C12.8298 22.2333 12.7446 22.4066 12.7028 22.6134C12.5801 23.2267 13.38 23.385 13.2776 23.7012C13.2607 23.7519 13.2228 23.8074 13.1506 23.8694C13.1176 23.8952 13.0815 23.9168 13.0431 23.9338L12.9728 23.9644C12.5925 24.1107 11.904 24.1309 11.6241 24.4367C11.485 24.5877 11.5259 24.9423 11.3577 25.127C11.3153 25.1753 11.2596 25.2102 11.1974 25.2274C11.0397 25.2695 10.8899 25.3368 10.7539 25.4266H10.7508C10.2211 25.7094 9.82947 26.8892 10.1435 27.4155C12.9215 28.2256 15.7517 28.1771 18.2562 27.3727C18.4368 27.068 18.1182 26.3877 17.9802 26.0315L17.9627 25.9886C17.8597 25.7456 17.6969 25.5368 17.4878 25.4266H17.4847C17.3488 25.3367 17.1989 25.2694 17.0412 25.2274C16.9791 25.2102 16.9234 25.1753 16.8812 25.127C16.713 24.9423 16.7539 24.5877 16.6148 24.4367C16.3352 24.132 15.6492 24.1107 15.2686 23.9655C15.2421 23.9549 15.2178 23.9442 15.1941 23.9324C15.1575 23.9165 15.1231 23.896 15.0917 23.8716L15.0883 23.8694C15.016 23.8074 14.9782 23.7519 14.9613 23.7012C14.8586 23.385 15.6588 23.2267 15.5361 22.6134C15.4943 22.4066 15.4091 22.2333 15.325 22.0764C15.1546 21.7599 14.9929 21.5119 15.2102 21.1901C15.246 21.1358 15.2892 21.0822 15.347 21.0242C15.8451 20.5292 15.0443 20.2506 14.6309 20.1993H14.6289C16.303 19.1454 16.8614 17.4867 18.0426 16.0278C18.0765 15.9861 18.1129 15.962 18.1509 15.9446C18.5138 15.7787 19.0522 16.5937 19.3409 16.1237C19.7994 15.3764 19.2091 15.3644 18.8939 15.1009C18.4946 14.7671 19.0104 14.4081 19.2277 14.0958C20.3397 12.4996 22.1081 11.4087 22.5971 9.41562Z" fill="white"/>
<defs>
<linearGradient id="paint0_linear_989_663" x1="3.74806" y1="4.68357" x2="24.7627" y2="23.0937" gradientUnits="userSpaceOnUse">
<stop stop-color="#19D75F"/>
<stop offset="1" stop-color="#16A34A"/>
</linearGradient>
</defs>
</svg>
